<?xml version="1.0" encoding="UTF-8"?>
<svg id="Livello_2" data-name="Livello 2" xmlns="http://www.w3.org/2000/svg" viewBox="0 0 800 800">
  <path d="m405.6,99.85c6.01,1.42,12.18,1.09,18.27,1.4,11.74.6,23.26,2.48,34.79,4.61,8.8,1.63,17.51,3.65,25.99,6.31,6.95,2.18,13.97,4.31,20.77,7.08,5.99,2.44,10.58,6.01,13.7,11.61,2.19,3.93,3.29,8.29,4.49,12.51,1,3.52,1.88,7.23,3.04,10.63,3.14,9.16,5.13,18.62,7.37,27.94,3.35,13.94,6.02,28.14,7.55,42.38,1.35,12.59,3.86,25.08,3.45,37.9-.27,8.33.85,16.7,1.31,25.06.15,2.68-.24,5.15-3.06,6.46-3.29,1.53-5.36-.04-7.69-2.35-6.86-6.8-13.96-13.37-21.06-19.93-10.78-9.96-22.13-19.3-33.89-28.06-10.44-7.78-21.08-15.3-32.11-22.3-8.22-5.22-16.51-10.35-24.93-15.17-8.68-4.97-17.57-9.64-26.69-13.88-6.24-2.9-12.43-5.91-18.68-8.82-9.06-4.22-18.35-7.89-27.73-11.32-9.04-3.3-18.06-6.63-27.34-9.29-4.37-1.25-8.73-2.78-13.11-4.08-10.19-3.04-20.53-5.52-30.95-7.67-6.68-1.38-13.26-3.29-19.99-4.28-3.23-.48-4.78-2.07-5.33-4.63-.6-2.79,1.49-4.77,3.71-5.88,8.8-4.42,17.59-8.88,26.61-12.82,13.25-5.8,27.01-10.3,40.91-14.17,8.07-2.25,16.43-3.9,24.68-5.06,8.33-1.17,16.67-2.97,25.25-2.81,6.44.12,12.99-.04,19.39-1.36h11.29Z"/>
  <path d="m263.97,438.37c1.75-13.67,2.52-27.44,4.72-41.09,1.8-11.11,4.02-22.14,6.02-33.2.7-3.86,1.69-7.73,2.73-11.52,3.43-12.51,6.86-25.03,10.9-37.35,2.21-6.75,7.57-11.18,14.04-14.1,6.74-3.04,13.46-6.14,20.28-8.99,7.73-3.22,15.49-6.36,23.39-9.19,6.74-2.42,13.43-5.05,20.27-7.16,11.32-3.49,22.66-6.91,34.28-9.4,4.81-1.03,9.72-1.83,14.45-3.32,8.66-2.72,16.02.18,22.89,5.33,5.2,3.9,10.52,7.63,15.74,11.5,11.98,8.88,23.5,18.33,34.48,28.41,7.14,6.55,14.42,12.99,21.03,20.05,7.24,7.73,15.44,14.71,21.16,23.7,2.88,4.53,4.72,9.89,3.81,15.53-2.11,13.15-2.78,26.47-4.92,39.64-1.53,9.4-3.55,18.69-5.13,28.07-2.09,12.47-5.69,24.55-8.97,36.68-1.84,6.83-3.6,13.81-6.81,20.3-3.13,6.33-8.81,9.24-14.6,12.04-7.2,3.48-14.45,6.95-21.93,9.74-8.45,3.15-16.73,6.72-25.29,9.61-6.44,2.17-12.83,4.63-19.32,6.58-11.48,3.45-23.03,6.73-34.84,9.02-4,.78-7.93,1.99-11.99,2.58-6.67.97-12.7-.28-18.24-4.3-7.71-5.6-15.64-10.9-23.05-16.91-7.38-5.98-14.74-11.98-21.95-18.17-14.58-12.52-28.26-25.91-41.2-40.07-4.17-4.56-8.9-8.74-10.55-15.18-.75-2.93-1.58-5.76-1.4-8.82Z"/>
  <path d="m103.03,441.55c.26-5.12,4.22-11.01,9.26-16.3,6.6-6.93,13.27-13.8,20.05-20.55,9.15-9.12,18.9-17.58,28.7-26.01,10.54-9.06,21.63-17.36,32.83-25.54,8.34-6.09,16.93-11.81,25.86-17.07,3.79-2.24,7.66-4.48,11.25-7.1,1.77-1.3,3.77-1.32,5.18-.02,1.64,1.51,3.74,3.21,2.85,6-3.72,11.7-6.02,23.75-8.78,35.68-2.72,11.76-4.35,23.72-5.95,35.64-3.76,28.15-4.87,56.48-3.76,84.84.49,12.56.96,25.14,2.55,37.69,1.56,12.31,3.44,24.54,5.45,36.77,1.5,9.17,3.75,18.14,5.8,27.17,2.93,12.89,6.53,25.56,10.6,38.14,1.97,6.07,4.38,12.01,5.98,18.21.64,2.5.73,5.04-1.54,6.39-2.22,1.33-4.83,1.3-7.29-.37-7.62-5.17-15.62-9.81-22.94-15.36-12.5-9.48-24.54-19.56-35.34-31.01-13.09-13.87-24.89-28.69-35.16-44.81-6.48-10.17-12.66-20.51-18.09-31.22-5.16-10.2-9.74-20.78-13.52-31.56-4.45-12.68-8.6-25.58-10.74-38.85-.99-6.1-3.46-11.94-3.25-20.77Z"/>
  <path d="m696.91,356.1c-.77,5.8-2.47,11.06-6.58,15.62-11.03,12.26-22.51,24.05-34.68,35.17-8.73,7.98-17.83,15.52-26.98,23.03-7.45,6.12-15.25,11.76-22.97,17.46-8.24,6.08-16.9,11.66-25.74,16.92-3.57,2.12-7.23,4.16-10.66,6.51-1.93,1.32-3.67,1.59-5.43.07-1.89-1.62-3.95-3.3-2.79-6.28,3.66-9.4,5.41-19.34,7.5-29.1,2.4-11.21,4.19-22.61,5.97-33.97,2.2-14.04,3.36-28.16,4.69-42.24,1.06-11.29.5-22.74.53-34.12.02-8.63.24-17.29-.35-25.88-1.06-15.4-2.25-30.78-4.74-46.06-1.21-7.44-2.18-14.96-3.55-22.36-1.9-10.21-4.47-20.29-6.92-30.39-3.02-12.48-6.73-24.76-10.75-36.97-1.3-3.95-2.99-7.8-4.08-11.87-.77-2.88-.89-5.42,1.27-7,2.08-1.51,5-1.33,7.36.16,12.76,8.06,25.14,16.68,36.72,26.34,9.45,7.89,18.28,16.5,26.64,25.59,9.88,10.75,18.84,22.21,26.95,34.31,6.27,9.35,12.05,19,17.25,29.03,2.99,5.77,6.06,11.5,8.66,17.46,4.78,10.94,9.45,21.9,12.46,33.52.92,3.55,2.02,7.13,3.19,10.6,3.52,10.39,4.18,21.35,7.03,31.85.22.82.03,1.74.03,2.62Z"/>
  <path d="m699.95,414.77c-.82,13.78-2.12,27.49-4.56,41.11-2.23,12.45-5.35,24.67-9.27,36.64-2.72,8.29-5.82,16.5-9.48,24.5-3.58,7.82-7.23,15.58-11.24,23.18-4.48,8.49-9.32,16.77-14.61,24.77-4.78,7.24-9.64,14.48-15.1,21.22-7.78,9.62-15.99,18.89-24.99,27.46-7.14,6.8-14.27,13.56-22.21,19.47-5.99,4.45-12.54,5.3-19.44,3.85-10.18-2.14-20.43-4.18-30.34-7.27-7.8-2.43-15.7-4.57-23.46-7.18-8.65-2.92-17.19-6.14-25.81-9.15-5.12-1.79-10.1-4.02-15.07-6.2-8.91-3.92-17.88-7.74-26.62-12.01-8.65-4.23-17.12-8.84-25.49-13.6-1.46-.83-2.3-3.06-1.84-5.31.6-2.93,2.68-4.24,5.18-4.76,8.99-1.85,17.64-4.88,26.35-7.64,9.05-2.86,18.08-5.82,26.97-9.14,7.64-2.85,15.11-6.18,22.58-9.46,6.67-2.93,13.25-6.03,19.84-9.14,6.25-2.95,12.35-6.15,18.43-9.44,6.68-3.61,13.24-7.41,19.78-11.25,10.77-6.33,21.21-13.14,31.5-20.22,9.44-6.5,18.74-13.21,27.57-20.45,19.83-16.27,38.93-33.37,56.03-52.59,5.18-5.83,10.61-11.44,15.55-17.49,1.8-2.21,4.09-2.7,6.73-1.91,2.9.86,3.2,3.07,3.03,5.64-.13,2.12-.03,4.25-.03,6.38Z"/>
  <path d="m398.9,699.85c-12.73-1.12-26.89-.32-40.96-2.79-9.16-1.61-18.26-3.39-27.37-5.29-13.27-2.78-26.05-7.1-38.61-11.97-5.99-2.32-9.88-7.32-12.26-13.68-2.57-6.86-4.41-13.9-6.5-20.87-2.93-9.82-5.57-19.73-7.55-29.8-2.33-11.79-5.02-23.53-6.67-35.41-3.05-21.86-4.52-43.89-5.37-65.95-.04-1-.14-2.02,0-3,.36-2.68,1.73-4.54,4.42-5.45,2.63-.89,4.5.75,5.88,2.2,7.48,7.88,15.41,15.28,23.57,22.44,7.18,6.29,14.4,12.56,21.86,18.52,6.99,5.58,14.37,10.68,21.5,16.1,10.38,7.89,21.39,14.89,32.54,21.58,9.92,5.95,20.06,11.6,30.42,16.86,8.34,4.23,16.74,8.34,25.2,12.29,9.23,4.31,18.68,8.2,28.34,11.59,5.34,1.87,10.66,3.88,15.97,5.89,10.44,3.96,21.21,6.85,31.86,10.09,10.4,3.17,21.11,5.46,31.8,7.52,5.01.96,10,2.04,15,3.01,2.69.52,3.86,2.06,4.28,4.25.5,2.62-1,4.63-3.22,5.79-11.91,6.23-24.01,11.99-36.6,16.83-6.72,2.58-13.52,4.92-20.32,7.16-8.3,2.73-16.81,5.07-25.59,6.09-2.2.26-4.35,1-6.53,1.49-17.7,3.91-35.74,3.9-55.08,4.53Z"/>
  <path d="m100.13,389.49c-.06-12.65,1.39-25.16,2.95-37.64.73-5.88,2.33-11.66,3.5-17.48,2.42-12.02,6.2-23.67,10.25-35.18,3.43-9.74,7.69-19.2,12.18-28.56,3.68-7.68,7.67-15.22,11.99-22.48,7.63-12.82,16.08-25.16,25.52-36.79,8.49-10.46,17.75-20.18,27.48-29.46,6-5.73,12.05-11.54,18.97-16.09,6.49-4.27,14.01-3.55,21.26-1.95,9.41,2.08,18.93,3.9,28.09,6.8,7.55,2.39,15.3,4.17,22.71,7.06,6.21,2.42,12.71,4.08,18.95,6.43,7.51,2.82,14.93,5.87,22.28,9.07,9.04,3.93,18.08,7.88,26.92,12.23,8.4,4.13,16.56,8.74,24.77,13.22,2.49,1.36,2.15,7.09-.47,8.44-4.79,2.46-10.21,2.96-15.22,4.8-4.51,1.66-9.27,2.6-13.86,4.04-6.82,2.15-13.63,4.33-20.36,6.74-5.34,1.91-10.59,4.08-15.81,6.3-9.52,4.05-19.09,8.01-28.45,12.41-8.2,3.85-16.1,8.33-24.21,12.38-10.15,5.07-19.77,11.08-29.42,16.98-7.83,4.79-15.46,9.99-22.89,15.46-5.83,4.29-11.83,8.38-17.55,12.83-14.28,11.12-28,22.85-41.13,35.36-10.92,10.4-21.19,21.37-31.42,32.4-1.98,2.13-3.87,4.43-5.7,6.72-2.17,2.72-4.3,5.21-8.31,3.77-4.02-1.44-3.01-4.85-3-7.8Z"/>
</svg>