<?xml version="1.0" encoding="UTF-8"?>
<svg id="Livello_11" data-name="Livello 11" xmlns="http://www.w3.org/2000/svg" viewBox="0 0 800 800">
  <path d="m509.89,99.82c-7.1,43.1-30.72,151.25-98.06,244.8,0,0-6.58,7.92-16.94,23.14l-20.74-6.91c-2.83-.91-4.37-4.08-3.17-6.82,36-84.43-100.18-184.51-137.28-209.81-3.6-2.45-8.5.43-8.06,4.8,25.58,256.9,118.7,228.29,135.55,220.9,1.73-.77,3.7-.53,5.18.58l17.9,13.44c-34.61,54.72-91.63,164.45-110.21,315.89H99.82V99.82h410.06Z"/>
  <path d="m699.82,99.82v600h-374.3c1.63-21.98,6.86-56.83,21.89-105.07l21.46-2.64c1.34-.19,2.64.24,3.6,1.15,11.76,11.14,95.18,77.9,242.88-100.61,2.3-2.74.58-7.01-3.02-7.34-39.5-3.74-208.18-13.58-240.53,88.94-.58,1.87-2.26,3.17-4.22,3.17h-14.59c15.12-44.78,38.21-99.84,73.25-165.6,0,0,105.31-171.12,114.58-312h159.02Z"/>
</svg>