<?xml version="1.0" encoding="UTF-8"?>
<svg xmlns="http://www.w3.org/2000/svg" viewBox="0 0 1133.86 1133.86">
  <defs>
    <style>
      .cls-1 {
        fill: #fc7777;
      }

      .cls-2 {
        fill: #5234ff;
      }

      .cls-3 {
        fill: #ffa8c6;
      }

      .cls-4 {
        fill: #ffc3d9;
      }
    </style>
  </defs>
  <g id="Livello_4" data-name="Livello 4">
    <path class="cls-3" d="m1103.96,753.95c-.09.27-.19.54-.29.81.09-.27.19-.54.28-.81h.01Z"/>
    <path class="cls-4" d="m1134,567c0,208.61-112.66,390.91-280.45,489.36-4.48,2.63-8.99,5.2-13.55,7.7-80.98,44.58-174.03,69.94-273,69.94-81.44,0-158.87-17.17-228.86-48.1-32.8-14.48-63.96-31.98-93.14-52.16-80.29-55.48-145.56-131.15-188.48-219.67C20.3,739.39,0,655.57,0,567,0,253.85,253.85,0,567,0c295.51,0,538.22,226.06,564.61,514.69,1.58,17.22,2.39,34.67,2.39,52.31Z"/>
  </g>
  <g id="Livello_8" data-name="Livello 8">
    <path class="cls-1" d="m840,613v451.06c-80.98,44.58-174.03,69.94-273,69.94-81.44,0-158.87-17.17-228.86-48.1-32.8-14.48-63.96-31.98-93.14-52.16v-60.91c-29.45-13.05-50-42.54-50-76.83s20.55-63.78,50-76.83v-206.17h595Z"/>
  </g>
  <g id="Livello_2" data-name="Livello 2">
    <g>
      <path d="m668.5,981c-24.26,0-44-16.6-44-37,0-3.87,3.13-7,7-7s7,3.13,7,7c0,12.68,13.46,23,30,23s30-10.32,30-23c0-3.87,3.13-7,7-7s7,3.13,7,7c0,20.4-19.74,37-44,37Z"/>
      <circle cx="746.5" cy="818.5" r="13.5"/>
      <circle cx="611.5" cy="818.5" r="13.5"/>
    </g>
    <g>
      <path class="cls-2" d="m520.08,775.48c39.05-20.79,105.06-12.7,125.96-9.43,4.21.66,8.36-.89,11.35-4.22l3.2-3.56c1.11-1.24.6-3.5-.92-4.04-78.24-27.79-117.69-8.38-117.69-8.38-16.19,8.39-21.9,29.62-21.9,29.62Z"/>
      <path class="cls-2" d="m800.04,772.03c-10.98-44.12-87.71-18.83-87.71-18.83-2.98,18.34.72,18.32.72,18.32,51.33-12.26,86.99.51,86.99.51Z"/>
      <path class="cls-2" d="m244.98,818.34c64.79-22.16,92.22,37.56,99.25,56.91,1.06,2.91,4.55,4.06,7.12,2.34l22.94-15.29c1.38-.92,2.28-3.02,2.02-4.65-15.94-101.86,20.27-134.19,38.3-143.79,5.38-2.87,8.02-9.11,6.47-15l-1.38-5.25c-3.03-11.5,4.99-22.96,16.83-24.07l27.85-2.61c8.1-.76,14.29-7.56,14.29-15.7h0c0-10.6,10.17-18.24,20.35-15.29l28.24,8.19c11.3,3.28,23.49.45,32.19-7.46h0c18.16-16.5,44.92-19.32,66.11-6.96l33.81,19.72c17.25,10.06,38.44,10.59,56.17,1.4l15.24-7.9c5.88-3.05,13.1-.42,15.65,5.69l2.54,6.09c1.75,4.19,5.71,7.03,10.24,7.33l19.19,1.28c2.5.17,5.01-.03,7.44-.6l7.77-1.79c8.21-1.89,16.39,3.22,18.29,11.43h0c1.51,6.56,7.64,11,14.34,10.39h0c8.79-.79,15.57,7.59,12.96,16.02l-.38,1.22c60.7-28.33,48.56-137.58,48.56-137.58-8.09,22.26-26.3,22.26-26.3,22.26,6.07-50.58-22.26-60.7-22.26-60.7-6.07,24.28-24.28,16.19-24.28,16.19-6.07-36.42-2.02-44.51-2.02-44.51-56.65-2.02-84.98-54.63-84.98-54.63-28.33-28.33-52.61-12.14-78.91-12.14s-50.23-4.6-50.23-4.6c-10.46-1.47-21.78,9.25-21.78,9.25-23.08-10.71-61.53-4.64-61.53-4.64-24.28-26.3-69.82-4.74-69.82-4.74-29.32,4.74-29.32,16.88-29.32,16.88-48.56-32.37-99.14,76.88-99.14,76.88-97.12,28.33-74.86,186.14-74.86,186.14,8.09,56.65,3.03,114.32,3.03,114.32Z"/>
      <path class="cls-2" d="m649.82,870.56l-86.44,25.9c-4.47,1.34-7.22,5.83-6.38,10.42l1.73,9.49c.91,4.98,5.68,8.27,10.65,7.37l88.22-16.1c4.98-.91,8.27-5.68,7.37-10.65l-3.52-19.29c-.98-5.37-6.41-8.7-11.64-7.13Z"/>
      <path class="cls-2" d="m695.26,906.18l58.32,19.31c3.02,1,6.94-1.37,9.1-5.51l4.48-8.54c2.35-4.48,1.8-9.4-1.23-10.99l-53.7-28.13c-3.03-1.59-7.39.76-9.73,5.24l-9.1,17.37c-2.53,4.84-1.66,10.09,1.86,11.25Z"/>
      <path class="cls-2" d="m730.67,1031.96c-5.98,17.72-31.54,31.04-62.17,31.04s-56.44-13.45-62.26-31.3c34.29-5.74,46.26-22.2,46.26-22.2l3,8c10-6,15-19,15-19,5,14,13,19,13,19l2-9c11.32,15.09,31.64,21.09,45.17,23.46Z"/>
    </g>
  </g>
</svg>